<svg width="18" height="10" viewBox="0 0 18 10" fill="none" xmlns="http://www.w3.org/2000/svg">
<path d="M17.0306 2.03063L9.53063 9.53063C9.46097 9.60036 9.37825 9.65568 9.28721 9.69343C9.19616 9.73117 9.09856 9.75059 9 9.75059C8.90144 9.75059 8.80384 9.73117 8.7128 9.69343C8.62175 9.65568 8.53903 9.60036 8.46938 9.53063L0.969376 2.03063C0.828646 1.8899 0.749584 1.69903 0.749584 1.50001C0.749584 1.30098 0.828646 1.11011 0.969376 0.96938C1.11011 0.828649 1.30098 0.749588 1.5 0.749588C1.69902 0.749588 1.8899 0.828649 2.03063 0.96938L9 7.93969L15.9694 0.96938C16.0391 0.899697 16.1218 0.844422 16.2128 0.80671C16.3039 0.768998 16.4015 0.749588 16.5 0.749588C16.5985 0.749588 16.6961 0.768998 16.7872 0.80671C16.8782 0.844422 16.9609 0.899697 17.0306 0.96938C17.1003 1.03906 17.1556 1.12179 17.1933 1.21283C17.231 1.30388 17.2504 1.40146 17.2504 1.50001C17.2504 1.59855 17.231 1.69613 17.1933 1.78718C17.1556 1.87822 17.1003 1.96095 17.0306 2.03063Z" fill="#100F0F"/>
</svg>
